<svg width="128" height="25" viewBox="0 0 128 25" fill="none" xmlns="http://www.w3.org/2000/svg">
<path d="M44.186 15.03L42.8 18H41.9L47.408 6.156L52.61 18H51.728L50.414 15.03H44.186ZM47.372 8.154L44.564 14.22H50.054L47.372 8.154ZM62.7856 18L57.9256 12.096H59.3656C60.2536 12.096 60.9736 11.982 61.5256 11.754C61.9336 11.562 62.2876 11.274 62.5876 10.89C62.8876 10.494 63.0376 10.062 63.0376 9.594C63.0376 9.174 62.9116 8.778 62.6596 8.406C62.4076 8.022 62.0476 7.71 61.5796 7.47C61.1116 7.23 60.5716 7.11 59.9596 7.11H56.6836V18H55.8736V6.3H59.9596C60.5116 6.3 61.0276 6.39 61.5076 6.57C61.9876 6.738 62.4076 6.984 62.7676 7.308C63.1156 7.62 63.3796 7.974 63.5596 8.37C63.7516 8.766 63.8476 9.174 63.8476 9.594C63.8476 10.254 63.6496 10.848 63.2536 11.376C62.8576 11.892 62.3896 12.264 61.8496 12.492C61.4776 12.66 61.1116 12.768 60.7516 12.816C60.4036 12.852 60.0316 12.87 59.6356 12.87L63.8656 18H62.7856ZM76.801 6.3V7.128H72.175V18H71.347V7.128H66.703V6.3H76.801ZM87.708 18H80.13V6.3H87.708V7.128H80.94V11.736H86.214V12.564H80.94V17.154H87.708V18ZM103.58 18H102.77V8.748L97.5863 16.146L92.3303 8.73V18H91.5203V6.156L97.5863 14.724L103.58 6.156V18ZM108.787 18H107.977V6.3H108.787V18ZM119.317 12.33C119.869 12.642 120.295 13.026 120.595 13.482C120.907 13.926 121.063 14.406 121.063 14.922C121.063 15.366 120.955 15.792 120.739 16.2C120.523 16.596 120.211 16.944 119.803 17.244C118.963 17.844 117.985 18.144 116.869 18.144C116.317 18.144 115.789 18.066 115.285 17.91C114.781 17.754 114.331 17.532 113.935 17.244C113.251 16.74 112.837 16.122 112.693 15.39L113.467 14.958C113.503 15.618 113.827 16.158 114.439 16.578C114.751 16.818 115.117 17.004 115.537 17.136C115.957 17.256 116.401 17.316 116.869 17.316C117.829 17.316 118.639 17.07 119.299 16.578C119.935 16.11 120.253 15.558 120.253 14.922C120.253 14.55 120.133 14.202 119.893 13.878C119.665 13.554 119.341 13.278 118.921 13.05C118.525 12.846 117.817 12.684 116.797 12.564C116.713 12.552 116.407 12.504 115.879 12.42C115.363 12.336 114.919 12.204 114.547 12.024C113.959 11.736 113.497 11.358 113.161 10.89C112.825 10.41 112.657 9.894 112.657 9.342C112.657 8.898 112.765 8.484 112.981 8.1C113.209 7.704 113.527 7.356 113.935 7.056C114.331 6.768 114.781 6.546 115.285 6.39C115.789 6.234 116.317 6.156 116.869 6.156C117.985 6.156 118.963 6.456 119.803 7.056C120.499 7.584 120.907 8.196 121.027 8.892L120.253 9.324C120.241 9.024 120.151 8.736 119.983 8.46C119.827 8.184 119.599 7.932 119.299 7.704C118.975 7.464 118.603 7.284 118.183 7.164C117.763 7.032 117.325 6.966 116.869 6.966C116.413 6.966 115.969 7.032 115.537 7.164C115.117 7.284 114.751 7.464 114.439 7.704C114.127 7.932 113.887 8.19 113.719 8.478C113.551 8.754 113.467 9.042 113.467 9.342C113.467 9.714 113.605 10.086 113.881 10.458C114.157 10.818 114.499 11.1 114.907 11.304C115.159 11.424 115.435 11.514 115.735 11.574C116.047 11.622 116.443 11.676 116.923 11.736C117.007 11.748 117.217 11.778 117.553 11.826C117.889 11.874 118.213 11.94 118.525 12.024C118.837 12.108 119.101 12.21 119.317 12.33Z" fill="white"/>
<path d="M44.186 15.03V14.63H43.9312L43.8235 14.8608L44.186 15.03ZM42.8 18V18.4H43.0547L43.1624 18.1692L42.8 18ZM41.9 18L41.5373 17.8313L41.2728 18.4H41.9V18ZM47.408 6.156L47.7742 5.99515L47.4184 5.18501L47.0453 5.98733L47.408 6.156ZM52.61 18V18.4H53.2225L52.9762 17.8391L52.61 18ZM51.728 18L51.3622 18.1618L51.4675 18.4H51.728V18ZM50.414 15.03L50.7798 14.8682L50.6744 14.63H50.414V15.03ZM47.372 8.154L47.7378 7.99225L47.3803 7.18374L47.009 7.98597L47.372 8.154ZM44.564 14.22L44.201 14.052L43.938 14.62H44.564V14.22ZM50.054 14.22V14.62H50.6682L50.4198 14.0582L50.054 14.22ZM43.8235 14.8608L42.4375 17.8308L43.1624 18.1692L44.5484 15.1992L43.8235 14.8608ZM42.8 17.6H41.9V18.4H42.8V17.6ZM42.2627 18.1687L47.7707 6.32467L47.0453 5.98733L41.5373 17.8313L42.2627 18.1687ZM47.0417 6.31685L52.2437 18.1609L52.9762 17.8391L47.7742 5.99515L47.0417 6.31685ZM52.61 17.6H51.728V18.4H52.61V17.6ZM52.0938 17.8382L50.7798 14.8682L50.0482 15.1918L51.3622 18.1618L52.0938 17.8382ZM50.414 14.63H44.186V15.43H50.414V14.63ZM47.009 7.98597L44.201 14.052L44.927 14.388L47.735 8.32203L47.009 7.98597ZM44.564 14.62H50.054V13.82H44.564V14.62ZM50.4198 14.0582L47.7378 7.99225L47.0061 8.31575L49.6881 14.3818L50.4198 14.0582ZM62.7856 18L62.4768 18.2542L62.5968 18.4H62.7856V18ZM57.9256 12.096V11.696H57.0782L57.6168 12.3502L57.9256 12.096ZM61.5256 11.754L61.6783 12.1237L61.6872 12.12L61.6959 12.1159L61.5256 11.754ZM62.5876 10.89L62.9028 11.1363L62.9064 11.1315L62.5876 10.89ZM62.6596 8.406L62.3251 8.62549L62.3284 8.63034L62.6596 8.406ZM61.5796 7.47L61.7621 7.11407L61.5796 7.47ZM56.6836 7.11V6.71H56.2836V7.11H56.6836ZM56.6836 18V18.4H57.0836V18H56.6836ZM55.8736 18H55.4736V18.4H55.8736V18ZM55.8736 6.3V5.9H55.4736V6.3H55.8736ZM61.5076 6.57L61.3671 6.94462L61.3755 6.94754L61.5076 6.57ZM62.7676 7.308L62.5 7.60532L62.5006 7.60583L62.7676 7.308ZM63.5596 8.37L63.1953 8.53557L63.1997 8.54451L63.5596 8.37ZM63.2536 11.376L63.5709 11.6195L63.5736 11.616L63.2536 11.376ZM61.8496 12.492L61.694 12.1234L61.685 12.1275L61.8496 12.492ZM60.7516 12.816L60.7928 13.214L60.8045 13.2125L60.7516 12.816ZM59.6356 12.87V12.47H58.7873L59.327 13.1245L59.6356 12.87ZM63.8656 18V18.4H64.7139L64.1742 17.7455L63.8656 18ZM63.0944 17.7458L58.2344 11.8418L57.6168 12.3502L62.4768 18.2542L63.0944 17.7458ZM57.9256 12.496H59.3656V11.696H57.9256V12.496ZM59.3656 12.496C60.2828 12.496 61.0603 12.379 61.6783 12.1237L61.3729 11.3843C60.8869 11.585 60.2244 11.696 59.3656 11.696V12.496ZM61.6959 12.1159C62.1651 11.8951 62.5674 11.5656 62.9028 11.1363L62.2724 10.6437C62.0078 10.9824 61.7021 11.2289 61.3553 11.3921L61.6959 12.1159ZM62.9064 11.1315C63.2556 10.6706 63.4376 10.1548 63.4376 9.594H62.6376C62.6376 9.96923 62.5196 10.3174 62.2688 10.6485L62.9064 11.1315ZM63.4376 9.594C63.4376 9.08834 63.2843 8.61502 62.9908 8.18166L62.3284 8.63034C62.5389 8.94098 62.6376 9.25965 62.6376 9.594H63.4376ZM62.994 8.18654C62.6988 7.73672 62.2826 7.38101 61.7621 7.11407L61.3971 7.82593C61.8125 8.03899 62.1164 8.30728 62.3252 8.62546L62.994 8.18654ZM61.7621 7.11407C61.2291 6.84071 60.6247 6.71 59.9596 6.71V7.51C60.5185 7.51 60.9941 7.61929 61.3971 7.82593L61.7621 7.11407ZM59.9596 6.71H56.6836V7.51H59.9596V6.71ZM56.2836 7.11V18H57.0836V7.11H56.2836ZM56.6836 17.6H55.8736V18.4H56.6836V17.6ZM56.2736 18V6.3H55.4736V18H56.2736ZM55.8736 6.7H59.9596V5.9H55.8736V6.7ZM59.9596 6.7C60.4673 6.7 60.9354 6.78262 61.3671 6.94453L61.648 6.19547C61.1198 5.99737 60.5559 5.9 59.9596 5.9V6.7ZM61.3755 6.94754C61.808 7.09893 62.1814 7.31853 62.5 7.60532L63.0352 7.01068C62.6338 6.64947 62.1672 6.37707 61.6397 6.19246L61.3755 6.94754ZM62.5006 7.60583C62.8105 7.8837 63.04 8.19353 63.1954 8.53552L63.9237 8.20448C63.7192 7.75447 63.4207 7.3563 63.0346 7.01017L62.5006 7.60583ZM63.1997 8.54451C63.3666 8.88879 63.4476 9.23735 63.4476 9.594H64.2476C64.2476 9.11065 64.1366 8.64321 63.9195 8.19549L63.1997 8.54451ZM63.4476 9.594C63.4476 10.1675 63.2777 10.6772 62.9336 11.136L63.5736 11.616C64.0215 11.0188 64.2476 10.3405 64.2476 9.594H63.4476ZM62.9363 11.1325C62.5777 11.5997 62.1634 11.9253 61.694 12.1235L62.0052 12.8605C62.6158 12.6027 63.1375 12.1843 63.5709 11.6195L62.9363 11.1325ZM61.685 12.1275C61.3441 12.2814 61.0157 12.3772 60.6987 12.4195L60.8045 13.2125C61.2075 13.1587 61.6111 13.0386 62.0142 12.8565L61.685 12.1275ZM60.7104 12.4181C60.3778 12.4525 60.0196 12.47 59.6356 12.47V13.27C60.0436 13.27 60.4294 13.2515 60.7928 13.2139L60.7104 12.4181ZM59.327 13.1245L63.557 18.2545L64.1742 17.7455L59.9442 12.6155L59.327 13.1245ZM63.8656 17.6H62.7856V18.4H63.8656V17.6ZM76.801 6.3H77.201V5.9H76.801V6.3ZM76.801 7.128V7.528H77.201V7.128H76.801ZM72.175 7.128V6.728H71.775V7.128H72.175ZM72.175 18V18.4H72.575V18H72.175ZM71.347 18H70.947V18.4H71.347V18ZM71.347 7.128H71.747V6.728H71.347V7.128ZM66.703 7.128H66.303V7.528H66.703V7.128ZM66.703 6.3V5.9H66.303V6.3H66.703ZM76.401 6.3V7.128H77.201V6.3H76.401ZM76.801 6.728H72.175V7.528H76.801V6.728ZM71.775 7.128V18H72.575V7.128H71.775ZM72.175 17.6H71.347V18.4H72.175V17.6ZM71.747 18V7.128H70.947V18H71.747ZM71.347 6.728H66.703V7.528H71.347V6.728ZM67.103 7.128V6.3H66.303V7.128H67.103ZM66.703 6.7H76.801V5.9H66.703V6.7ZM87.708 18V18.4H88.108V18H87.708ZM80.13 18H79.73V18.4H80.13V18ZM80.13 6.3V5.9H79.73V6.3H80.13ZM87.708 6.3H88.108V5.9H87.708V6.3ZM87.708 7.128V7.528H88.108V7.128H87.708ZM80.94 7.128V6.728H80.54V7.128H80.94ZM80.94 11.736H80.54V12.136H80.94V11.736ZM86.214 11.736H86.614V11.336H86.214V11.736ZM86.214 12.564V12.964H86.614V12.564H86.214ZM80.94 12.564V12.164H80.54V12.564H80.94ZM80.94 17.154H80.54V17.554H80.94V17.154ZM87.708 17.154H88.108V16.754H87.708V17.154ZM87.708 17.6H80.13V18.4H87.708V17.6ZM80.53 18V6.3H79.73V18H80.53ZM80.13 6.7H87.708V5.9H80.13V6.7ZM87.308 6.3V7.128H88.108V6.3H87.308ZM87.708 6.728H80.94V7.528H87.708V6.728ZM80.54 7.128V11.736H81.34V7.128H80.54ZM80.94 12.136H86.214V11.336H80.94V12.136ZM85.814 11.736V12.564H86.614V11.736H85.814ZM86.214 12.164H80.94V12.964H86.214V12.164ZM80.54 12.564V17.154H81.34V12.564H80.54ZM80.94 17.554H87.708V16.754H80.94V17.554ZM87.308 17.154V18H88.108V17.154H87.308ZM103.58 18V18.4H103.98V18H103.58ZM102.77 18H102.37V18.4H102.77V18ZM102.77 8.748H103.17V7.48014L102.443 8.51845L102.77 8.748ZM97.5863 16.146L97.26 16.3773L97.5882 16.8404L97.9139 16.3755L97.5863 16.146ZM92.3303 8.73L92.6567 8.4987L91.9303 7.47386V8.73H92.3303ZM92.3303 18V18.4H92.7303V18H92.3303ZM91.5203 18H91.1203V18.4H91.5203V18ZM91.5203 6.156L91.8468 5.92487L91.1203 4.89877V6.156H91.5203ZM97.5863 14.724L97.2599 14.9551L97.5883 15.419L97.9141 14.9533L97.5863 14.724ZM103.58 6.156H103.98V4.88643L103.253 5.92671L103.58 6.156ZM103.58 17.6H102.77V18.4H103.58V17.6ZM103.17 18V8.748H102.37V18H103.17ZM102.443 8.51845L97.2588 15.9165L97.9139 16.3755L103.098 8.97755L102.443 8.51845ZM97.9127 15.9147L92.6567 8.4987L92.004 8.96129L97.26 16.3773L97.9127 15.9147ZM91.9303 8.73V18H92.7303V8.73H91.9303ZM92.3303 17.6H91.5203V18.4H92.3303V17.6ZM91.9203 18V6.156H91.1203V18H91.9203ZM91.1939 6.38713L97.2599 14.9551L97.9128 14.4929L91.8468 5.92487L91.1939 6.38713ZM97.9141 14.9533L103.908 6.38529L103.253 5.92671L97.2586 14.4947L97.9141 14.9533ZM103.18 6.156V18H103.98V6.156H103.18ZM108.787 18V18.4H109.187V18H108.787ZM107.977 18H107.577V18.4H107.977V18ZM107.977 6.3V5.9H107.577V6.3H107.977ZM108.787 6.3H109.187V5.9H108.787V6.3ZM108.787 17.6H107.977V18.4H108.787V17.6ZM108.377 18V6.3H107.577V18H108.377ZM107.977 6.7H108.787V5.9H107.977V6.7ZM108.387 6.3V18H109.187V6.3H108.387ZM119.317 12.33L119.514 11.9818L119.511 11.9803L119.317 12.33ZM120.595 13.482L120.261 13.7019L120.268 13.712L120.595 13.482ZM120.739 16.2L121.09 16.3916L121.092 16.3872L120.739 16.2ZM119.803 17.244L120.035 17.5695L120.04 17.5663L119.803 17.244ZM115.285 17.91L115.167 18.2921L115.285 17.91ZM113.935 17.244L113.698 17.566L113.7 17.5675L113.935 17.244ZM112.693 15.39L112.498 15.0407L112.244 15.1823L112.301 15.4672L112.693 15.39ZM113.467 14.958L113.866 14.9362L113.831 14.2965L113.272 14.6087L113.467 14.958ZM114.439 16.578L114.683 16.261L114.674 16.2543L114.665 16.2482L114.439 16.578ZM115.537 17.136L115.417 17.5177L115.427 17.5206L115.537 17.136ZM119.299 16.578L119.062 16.2558L119.06 16.2573L119.299 16.578ZM119.893 13.878L119.566 14.1083L119.572 14.1161L119.893 13.878ZM118.921 13.05L119.112 12.6984L119.104 12.6944L118.921 13.05ZM116.797 12.564L116.74 12.9601L116.75 12.9613L116.797 12.564ZM115.879 12.42L115.815 12.8148L115.816 12.815L115.879 12.42ZM114.547 12.024L114.371 12.3832L114.373 12.3841L114.547 12.024ZM113.161 10.89L112.833 11.1194L112.836 11.1233L113.161 10.89ZM112.981 8.1L112.634 7.9004L112.632 7.9039L112.981 8.1ZM113.935 7.056L113.7 6.7325L113.698 6.73374L113.935 7.056ZM115.285 6.39L115.167 6.00788L115.285 6.39ZM119.803 7.056L120.045 6.73719L120.035 6.73051L119.803 7.056ZM121.027 8.892L121.222 9.24128L121.469 9.10321L121.421 8.82404L121.027 8.892ZM120.253 9.324L119.853 9.33999L119.879 9.99064L120.448 9.67328L120.253 9.324ZM119.983 8.46L119.635 8.65693L119.641 8.66798L119.983 8.46ZM119.299 7.704L119.541 7.38551L119.537 7.38258L119.299 7.704ZM118.183 7.164L118.063 7.54573L118.073 7.54861L118.183 7.164ZM115.537 7.164L115.647 7.54867L115.654 7.54654L115.537 7.164ZM114.439 7.704L114.675 8.02705L114.683 8.02105L114.439 7.704ZM113.719 8.478L114.061 8.68601L114.064 8.67955L113.719 8.478ZM113.881 10.458L113.56 10.6964L113.564 10.7014L113.881 10.458ZM114.907 11.304L114.728 11.6618L114.735 11.6651L114.907 11.304ZM115.735 11.574L115.657 11.9662L115.665 11.968L115.674 11.9693L115.735 11.574ZM116.923 11.736L116.98 11.34L116.973 11.3391L116.923 11.736ZM117.553 11.826L117.61 11.43L117.553 11.826ZM118.525 12.024L118.629 11.6378L118.525 12.024ZM119.12 12.6782C119.626 12.964 120.001 13.3069 120.261 13.7018L120.929 13.2622C120.589 12.7451 120.112 12.32 119.514 11.9818L119.12 12.6782ZM120.268 13.712C120.535 14.0923 120.663 14.4927 120.663 14.922H121.463C121.463 14.3193 121.279 13.7597 120.922 13.252L120.268 13.712ZM120.663 14.922C120.663 15.2981 120.572 15.6601 120.385 16.0128L121.092 16.3872C121.338 15.9239 121.463 15.4339 121.463 14.922H120.663ZM120.388 16.0085C120.203 16.3471 119.933 16.6522 119.566 16.9217L120.04 17.5663C120.489 17.2358 120.843 16.8449 121.09 16.3915L120.388 16.0085ZM119.57 16.9185C118.804 17.4661 117.909 17.744 116.869 17.744V18.544C118.061 18.544 119.122 18.2219 120.035 17.5695L119.57 16.9185ZM116.869 17.744C116.355 17.744 115.867 17.6715 115.403 17.5279L115.167 18.2921C115.711 18.4605 116.279 18.544 116.869 18.544V17.744ZM115.403 17.5279C114.938 17.3839 114.528 17.1807 114.17 16.9205L113.7 17.5675C114.134 17.8833 114.624 18.1241 115.167 18.2921L115.403 17.5279ZM114.172 16.922C113.557 16.4685 113.207 15.9329 113.085 15.3128L112.301 15.4672C112.467 16.3111 112.945 17.0115 113.698 17.566L114.172 16.922ZM112.888 15.7393L113.662 15.3073L113.272 14.6087L112.498 15.0407L112.888 15.7393ZM113.068 14.9798C113.111 15.7802 113.513 16.4274 114.213 16.9078L114.665 16.2482C114.141 15.8886 113.895 15.4558 113.866 14.9362L113.068 14.9798ZM114.195 16.8951C114.548 17.1669 114.958 17.3732 115.417 17.5176L115.657 16.7544C115.276 16.6348 114.954 16.4691 114.683 16.261L114.195 16.8951ZM115.427 17.5206C115.885 17.6515 116.366 17.716 116.869 17.716V16.916C116.436 16.916 116.029 16.8605 115.647 16.7514L115.427 17.5206ZM116.869 17.716C117.9 17.716 118.798 17.4504 119.538 16.8987L119.06 16.2573C118.48 16.6896 117.758 16.916 116.869 16.916V17.716ZM119.536 16.9002C120.247 16.3771 120.653 15.716 120.653 14.922H119.853C119.853 15.4 119.623 15.8429 119.062 16.2558L119.536 16.9002ZM120.653 14.922C120.653 14.457 120.501 14.0267 120.214 13.6399L119.572 14.1161C119.765 14.3773 119.853 14.643 119.853 14.922H120.653ZM120.22 13.6478C119.95 13.264 119.575 12.9499 119.112 12.6985L118.73 13.4015C119.107 13.6061 119.38 13.844 119.566 14.1082L120.22 13.6478ZM119.104 12.6944C118.638 12.4542 117.865 12.2869 116.844 12.1667L116.75 12.9613C117.769 13.0811 118.412 13.2378 118.738 13.4056L119.104 12.6944ZM116.854 12.168C116.774 12.1566 116.472 12.1093 115.942 12.025L115.816 12.815C116.342 12.8987 116.652 12.9474 116.74 12.96L116.854 12.168ZM115.943 12.0252C115.456 11.9458 115.051 11.8233 114.721 11.6639L114.373 12.3841C114.787 12.5847 115.27 12.7262 115.815 12.8148L115.943 12.0252ZM114.723 11.6648C114.186 11.4018 113.778 11.0641 113.486 10.6567L112.836 11.1233C113.216 11.6519 113.732 12.0702 114.371 12.3832L114.723 11.6648ZM113.489 10.6606C113.197 10.2435 113.057 9.80676 113.057 9.342H112.257C112.257 9.98124 112.453 10.5765 112.833 11.1194L113.489 10.6606ZM113.057 9.342C113.057 8.96614 113.148 8.61975 113.33 8.2961L112.632 7.9039C112.382 8.34825 112.257 8.82986 112.257 9.342H113.057ZM113.328 8.29959C113.525 7.95661 113.804 7.64899 114.172 7.37826L113.698 6.73374C113.25 7.06301 112.893 7.45139 112.634 7.90041L113.328 8.29959ZM114.17 7.37949C114.528 7.11925 114.938 6.91614 115.403 6.77211L115.167 6.00788C114.624 6.17586 114.134 6.41675 113.7 6.7325L114.17 7.37949ZM115.403 6.77211C115.867 6.62851 116.355 6.556 116.869 6.556V5.756C116.279 5.756 115.711 5.83949 115.167 6.00788L115.403 6.77211ZM116.869 6.556C117.909 6.556 118.804 6.83394 119.57 7.38149L120.035 6.73051C119.122 6.07806 118.061 5.756 116.869 5.756V6.556ZM119.561 7.37468C120.197 7.85665 120.534 8.38615 120.633 8.95996L121.421 8.82404C121.28 8.00585 120.801 7.31135 120.045 6.73732L119.561 7.37468ZM120.832 8.54272L120.058 8.97472L120.448 9.67328L121.222 9.24128L120.832 8.54272ZM120.653 9.30801C120.638 8.93499 120.525 8.5815 120.325 8.25202L119.641 8.66798C119.777 8.8905 119.844 9.113 119.853 9.33999L120.653 9.30801ZM120.331 8.26318C120.144 7.93178 119.876 7.64034 119.541 7.38553L119.057 8.02246C119.322 8.22366 119.51 8.43622 119.635 8.65682L120.331 8.26318ZM119.537 7.38258C119.171 7.11169 118.755 6.91148 118.293 6.77939L118.073 7.54861C118.451 7.65652 118.779 7.81631 119.061 8.02542L119.537 7.38258ZM118.303 6.7824C117.843 6.63777 117.364 6.566 116.869 6.566V7.366C117.286 7.366 117.683 7.42623 118.063 7.5456L118.303 6.7824ZM116.869 6.566C116.374 6.566 115.89 6.63777 115.42 6.78146L115.654 7.54654C116.048 7.42623 116.452 7.366 116.869 7.366V6.566ZM115.427 6.77939C114.964 6.91174 114.551 7.11298 114.195 7.38695L114.683 8.02105C114.951 7.81502 115.27 7.65626 115.647 7.54861L115.427 6.77939ZM114.203 7.38104C113.854 7.63642 113.573 7.93391 113.373 8.27645L114.064 8.67955C114.201 8.44609 114.4 8.22758 114.675 8.02696L114.203 7.38104ZM113.377 8.27002C113.174 8.60367 113.067 8.96298 113.067 9.342H113.867C113.867 9.12102 113.928 8.90432 114.061 8.68598L113.377 8.27002ZM113.067 9.342C113.067 9.81899 113.245 10.2726 113.56 10.6963L114.202 10.2197C113.965 9.89944 113.867 9.60901 113.867 9.342H113.067ZM113.564 10.7014C113.877 11.1098 114.266 11.4308 114.728 11.6618L115.086 10.9462C114.732 10.7692 114.437 10.5262 114.198 10.2146L113.564 10.7014ZM114.735 11.6651C115.019 11.8006 115.327 11.9004 115.657 11.9662L115.813 11.1818C115.543 11.1276 115.298 11.0474 115.079 10.9429L114.735 11.6651ZM115.674 11.9693C115.991 12.0181 116.391 12.0727 116.873 12.1329L116.973 11.3391C116.495 11.2793 116.103 11.2259 115.796 11.1787L115.674 11.9693ZM116.866 12.132C116.95 12.144 117.16 12.174 117.496 12.222L117.61 11.43C117.274 11.382 117.064 11.352 116.98 11.34L116.866 12.132ZM117.496 12.222C117.817 12.2678 118.125 12.3306 118.421 12.4102L118.629 11.6378C118.301 11.5493 117.961 11.4802 117.61 11.43L117.496 12.222ZM118.421 12.4102C118.711 12.4882 118.942 12.5795 119.123 12.6797L119.511 11.9803C119.26 11.8405 118.963 11.7278 118.629 11.6378L118.421 12.4102Z" fill="white"/>
<path d="M24.6579 7.36503C24.8052 7.11273 25.1614 6.90932 25.4535 6.9107L31.0369 6.93706C31.329 6.93844 31.4465 7.14409 31.2992 7.39639L29.9726 9.66931C29.8253 9.92161 29.4691 10.125 29.177 10.1236L23.5936 10.0973C23.3015 10.0959 23.184 9.89025 23.3313 9.63796L24.6579 7.36503Z" fill="white"/>
<path d="M3.82519 12.3792C3.97245 12.1269 4.32864 11.9235 4.62077 11.9249L10.2042 11.9512C10.4963 11.9526 10.6137 12.1582 10.4665 12.4105L9.13986 14.6835C8.9926 14.9358 8.63641 15.1392 8.34428 15.1378L2.76088 15.1114C2.46876 15.1101 2.35132 14.9044 2.49857 14.6521L3.82519 12.3792Z" fill="white"/>
<path d="M6.80096 7.2808C6.94822 7.0285 7.30441 6.82509 7.59654 6.82647L13.1799 6.85283C13.4721 6.85421 13.5895 7.05986 13.4422 7.31216L12.1156 9.58508C11.9684 9.83738 11.6122 10.0408 11.3201 10.0394L5.73665 10.0131C5.44452 10.0117 5.32709 9.80603 5.47434 9.55373L6.80096 7.2808Z" fill="white"/>
<path d="M14.9127 8.59721C15.06 8.34491 15.4162 8.1415 15.7083 8.14288L21.4393 8.16994C21.7314 8.17131 21.8488 8.37696 21.7016 8.62926L18.8871 13.4514C18.7398 13.7037 18.3836 13.9072 18.0915 13.9058L12.3605 13.8787C12.0684 13.8773 11.9509 13.6717 12.0982 13.4194L14.9127 8.59721Z" fill="#3671E9"/>
<path d="M21.6848 12.4637C21.832 12.2114 22.1882 12.008 22.4804 12.0093L28.0638 12.0357C28.3559 12.0371 28.4733 12.2427 28.3261 12.495L26.9994 14.7679C26.8522 15.0202 26.496 15.2237 26.2039 15.2223L20.6205 15.1959C20.3283 15.1945 20.2109 14.9889 20.3582 14.7366L21.6848 12.4637Z" fill="white"/>
<path d="M15.9317 4.94853C16.543 4.95142 16.7887 5.38178 16.4806 5.90973V5.90973C16.3779 6.08572 16.4598 6.22917 16.6636 6.23013L18.0532 6.23669C18.3453 6.23807 18.7015 6.03466 18.8488 5.78236L19.8841 4.00858C20.0321 3.75499 20.2906 3.51241 20.6028 3.33417V3.33417C20.7828 3.2314 20.8012 3.0543 20.632 3.0535L9.82838 3.0025C9.53625 3.00112 9.18006 3.20453 9.03281 3.45683L8.45014 4.45512C8.30288 4.70742 8.42032 4.91307 8.71245 4.91445L15.9317 4.94853Z" fill="white"/>
<path d="M22.0997 4.28186C21.9505 4.36706 21.827 4.48299 21.7563 4.60415L21.0625 5.79274C20.9153 6.04504 21.0327 6.25069 21.3248 6.25207L22.7145 6.25863C22.9183 6.25959 23.1667 6.1177 23.2694 5.94171V5.94171C23.5776 5.41376 24.323 4.98808 24.9343 4.99096L32.1535 5.02505C32.4456 5.02643 32.8018 4.82301 32.9491 4.57072L33.5318 3.57242C33.679 3.32012 33.5616 3.11448 33.2695 3.1131L24.4402 3.07141C24.3 3.07075 24.1373 3.11825 23.9881 3.20345L22.0997 4.28186Z" fill="white"/>
<path d="M17.8683 17.1001C17.257 17.0972 17.0113 16.6669 17.3194 16.1389V16.1389C17.4221 15.9629 17.3402 15.8195 17.1364 15.8185L15.7468 15.812C15.4547 15.8106 15.0985 16.014 14.9512 16.2663L13.9159 18.0401C13.7679 18.2937 13.5094 18.5362 13.1972 18.7145V18.7145C13.0172 18.8173 12.9988 18.9943 13.168 18.9951L23.9716 19.0461C24.2637 19.0475 24.6199 18.8441 24.7672 18.5918L25.3498 17.5935C25.4971 17.3412 25.3797 17.1356 25.0875 17.1342L17.8683 17.1001Z" fill="white"/>
<path d="M11.6986 17.7667C11.8478 17.6815 11.9714 17.5655 12.0421 17.4444L12.7358 16.2558C12.8831 16.0035 12.7656 15.7978 12.4735 15.7964L11.0839 15.7899C10.8801 15.7889 10.6316 15.9308 10.5289 16.1068V16.1068C10.2208 16.6348 9.47537 17.0604 8.86407 17.0576L1.64485 17.0235C1.35272 17.0221 0.996533 17.2255 0.849275 17.4778L0.26661 18.4761C0.119352 18.7284 0.236791 18.934 0.528918 18.9354L9.35813 18.9771C9.49842 18.9778 9.66104 18.9303 9.81024 18.8451L11.6986 17.7667Z" fill="white"/>
</svg>
